/* XPM */
static char *d0e07e3ce43942e6d98efd60a96f7e2d53pER2DWA9XjDKX3[] = {
/* columns rows colors chars-per-pixel */
"30 30 256 2 ",
"   c #090806",
".  c #110F0B",
"X  c #0F110F",
"o  c #13120E",
"O  c #1B160B",
"+  c #141411",
"@  c #1A1711",
"#  c #151A15",
"$  c #1B1B15",
"%  c #1C1D1B",
"&  c #231B0C",
"*  c #291F0D",
"=  c #221D15",
"-  c #241F18",
";  c #1A2017",
":  c #1D241B",
">  c #162018",
",  c #2D220E",
"<  c #232115",
"1  c #2C2314",
"2  c #24231C",
"3  c #2B251A",
"4  c #23281F",
"5  c #2A2A1E",
"6  c #3C2B13",
"7  c #32291C",
"8  c #3B2D1B",
"9  c #322616",
"0  c #2A301F",
"q  c #3D311C",
"w  c #232521",
"e  c #262C23",
"r  c #2A2C23",
"t  c #2B2E2A",
"y  c #332C23",
"u  c #3A2E23",
"i  c #312E2B",
"p  c #2D342A",
"a  c #2B3327",
"s  c #333223",
"d  c #33342C",
"f  c #373A29",
"g  c #363B32",
"h  c #3B3B32",
"j  c #393C38",
"k  c #422E15",
"l  c #402F18",
"z  c #433017",
"x  c #45331A",
"c  c #4B351A",
"v  c #4F381B",
"b  c #533A1C",
"n  c #5A3F1E",
"m  c #473623",
"M  c #4B3921",
"N  c #48392A",
"B  c #553E22",
"V  c #5D3E21",
"C  c #563E2C",
"Z  c #39422F",
"A  c #354130",
"S  c #3C4335",
"D  c #3E443B",
"F  c #3F4C3B",
"G  c #60421F",
"H  c #4F432C",
"J  c #46462E",
"K  c #5D4224",
"L  c #53432D",
"P  c #5C452C",
"I  c #55482D",
"U  c #5E492C",
"Y  c #574427",
"T  c #4D4A35",
"R  c #424A3D",
"E  c #474739",
"W  c #594532",
"Q  c #534B34",
"!  c #5B4C33",
"~  c #51473A",
"^  c #574A39",
"/  c #4C533E",
"(  c #57533B",
")  c #644423",
"_  c #694624",
"`  c #6C4926",
"'  c #62462B",
"]  c #654A2C",
"[  c #6B4C2C",
"{  c #664826",
"}  c #724A27",
"|  c #744D2A",
" . c #794F2B",
".. c #7D522D",
"X. c #634A32",
"o. c #6B4D33",
"O. c #694E3C",
"+. c #714931",
"@. c #6D5034",
"#. c #64533C",
"$. c #6B543D",
"%. c #6A593E",
"&. c #735235",
"*. c #7B5333",
"=. c #785837",
"-. c #73553B",
";. c #7C5B3D",
":. c #765A3C",
">. c #7D603F",
",. c #444543",
"<. c #494542",
"1. c #494D45",
"2. c #514A41",
"3. c #465241",
"4. c #4B5444",
"5. c #4F5A4A",
"6. c #4D5649",
"7. c #5B5044",
"8. c #53514D",
"9. c #535C4B",
"0. c #5B5C44",
"q. c #575A55",
"w. c #645443",
"e. c #6C5540",
"r. c #625B44",
"t. c #6D5944",
"y. c #6A594A",
"u. c #7B5C42",
"i. c #745D4A",
"p. c #785D48",
"a. c #685E54",
"s. c #5B614D",
"d. c #57604D",
"f. c #566150",
"g. c #5A6352",
"h. c #5D6956",
"j. c #5D645B",
"k. c #5F6A5B",
"l. c #63644E",
"z. c #6B654D",
"x. c #676047",
"c. c #736146",
"v. c #74614B",
"b. c #7C614C",
"n. c #7F6545",
"m. c #616450",
"M. c #646B56",
"N. c #6C6359",
"B. c #646D5B",
"V. c #686858",
"C. c #736B54",
"Z. c #7B6C52",
"A. c #796858",
"S. c #64725C",
"D. c #6A725B",
"F. c #72735E",
"G. c #7E735E",
"H. c #696D63",
"J. c #646B62",
"K. c #7B6C61",
"L. c #657160",
"P. c #6B7664",
"I. c #697861",
"U. c #6D746A",
"Y. c #6E7A68",
"T. c #73766A",
"R. c #74796B",
"E. c #777666",
"W. c #777E74",
"Q. c #787E73",
"!. c #84552E",
"~. c #88562F",
"^. c #835632",
"/. c #875A35",
"(. c #8C5933",
"). c #835B3B",
"_. c #8A5E3B",
"`. c #885730",
"'. c #945D35",
"]. c #935E39",
"[. c #8D603C",
"{. c #94613C",
"}. c #9A633C",
"|. c #A3663C",
" X c #A8693F",
".X c #835F44",
"XX c #836245",
"oX c #8B6B4C",
"OX c #88654B",
"+X c #946543",
"@X c #9C6642",
"#X c #946C4D",
"$X c #9C6B48",
"%X c #906A46",
"&X c #836752",
"*X c #8A6E59",
"=X c #886C56",
"-X c #956D52",
";X c #8D7159",
":X c #877053",
">X c #99765D",
",X c #93745D",
"<X c #AB6D44",
"1X c #A16B45",
"2X c #B26E42",
"3X c #A87756",
"4X c #B47A55",
"5X c #806F63",
"6X c #867868",
"7X c #977A66",
"8X c #987962",
"9X c #947E70",
"0X c #A57C61",
"qX c #C5794A",
"wX c #798375",
"eX c #7B8477",
"rX c #838176",
"tX c #AF8266",
"yX c #B18263",
"uX c #888B84",
"iX c #8C9085",
"pX c #919390",
"aX c black",
"sX c black",
"dX c black",
"fX c black",
"gX c black",
"hX c black",
"jX c black",
"kX c black",
"lX c black",
"zX c black",
"xX c black",
"cX c black",
"vX c black",
"bX c black",
"nX c black",
"mX c black",
"MX c black",
"NX c black",
"BX c black",
"VX c black",
"CX c black",
"ZX c black",
"AX c black",
"SX c black",
"DX c black",
"FX c black",
"GX c black",
"HX c black",
"JX c black",
"KX c black",
"LX c black",
"PX c black",
"IX c black",
"UX c black",
/* pixels */
"6.wXiXuXwXI.Q.R.I.W.wXS.h.w L.Y.W.W.wXY.e h.I.P.F.S.R J.eXg ",
"q.iX9X0XC.M.>X:XS.Z.6XD.4.2 U.M.Z.T.T.4.% f.M.;./.0.e i.E.5 ",
"1.Z.}.<X_.#X>X#X5X[.+X-.f % H.XX/.$.! a + j.;X'.!.] 1 *.y.$ ",
"7.XX'.-X+X$X+X@X{.~...P e $ #.}. X| { y @ h.8X2X{.-.8 L N o ",
"O.{.*.t.$.a.X.{ _ K | ' u $  .!.(. .} x + R +X@X.Xa.i r r + ",
"o.(.} X.E H P ) K P ..[ q @ ^.!.*.&...b $ V.,X;Xt.#.3 j.B.w ",
"E O.) P L P P K X.P ) v , @ /. .' [ _ 6 + h.A.K.N.f.5 ' E + ",
"t r 3 = < < 2 = = O O O . o 1 & O O O   @ V.m.A.b.l.r y w X ",
"T s.9.3.5.6.g # j R 1.6.1.R S w g q.D S a H.m./...Q e q.T.r.",
"t.c.( 9.%.m.A w L.B.P.U.I.Y.9.w q.E.0.( 3 9.z.^.#.Q e B.:X] ",
"K..X%.r.] r.p a l.c.c.9.:.u.S + E B c 6 O 9.s.L ~ T : S [ ) ",
"3X_.@.| n X.u s [.~.).9.[ ..J : h r 5 < + H.r.#.p.o.$ R _.*.",
"yX-X` ` n ) 6 y ..] w.] K ` I e L.S.M.R % w.^.;.u.#.: q.7X3X",
"0X] ` [ n I a 5 | X.y.o.) &.] r E.n.=.f # t. .u.@.T : w.=X7X",
"}.` ..` K U a o n _ &. ...| n 1 ).` } m # Q ..).] ] 1 &.*.oX",
"!.' P P b H a + 8 6 6 6 c k * O | ..| B # XX|.;.v.y.7 -.XX8X",
"..) B B G U 0 + j q.8.R S a : - @X`.) l $ #X].*XK.A.y 5X#X*X",
"| b B B _ ) 7 + 7.0XOXx.9.5.A 3 1X.._ x = -X| `.b.i.i w.(./.",
"m x x z c 6 & o P ^._ K Y Q 4 $  .(.*.W - OX(.}.[ a.i X.) x ",
"+ @ $ r 2 5 4 t L 8 1 & & &   = `.(.`.V = 6X;.) ^ 8.2 2 r @ ",
"e q.B.M.9.f.h.P.B.3.D 2 w D p y ].(.`.b O N 3 & 2 %   e ^ u ",
"t G.oXn.M.g.s.C.z.9.F # h 6X3.2 V k k , o e ,.,.g D ,.R 1.d ",
"d $X'.<X1Xl.V.u.;.! Z # u u.s # S g d d w 1.pXR.h.R.uXQ.B.p ",
"y (.'.2X|.;.>.;.A.&.J : 7 m O % M.s./ T < 8.uXM.z.#XD.f.3.: ",
"y (.'.`.!.=.p.&Xv.*.T ; - r 2 w y s y 5 o ,.rX8X#X1X:.( T ; ",
"u |.'.(.].i.@.&.e.@.P : t B.F.k.5.S.U.f.a W yXtX7X&XP $.Q # ",
"y (.!.'./.e.X.^ X.K Y $ p 6X%XC.c.0.d.6.: ' qX<X-.W 2.&.] $ ",
"i =.!...) ` K ' `  .K @ C 4X}.}._.| =.( > +.4X,XO.~ ^ *.[ & ",
"i u.` ) ) _ ) o.[ } _ 3 M 3X}.}.].| | L $ P $Xb.$.L _ ..` & ",
"y _ K x x n b B P b q 2 m ).[ 7.L z z 9 = <.w.n c z M M 8 < "
};
